<svg width="33" height="33" viewBox="0 0 33 33" fill="none" xmlns="http://www.w3.org/2000/svg">
<path d="M6.46548 27.9813L4.21948 2.78027H28.9075L26.6585 27.9773L16.5485 30.7803L6.46548 27.9813Z" fill="#1572B6"/>
<path d="M16.5635 28.6383L24.7335 26.3733L26.6555 4.84131H16.5635V28.6383Z" fill="#33A9DC"/>
<path d="M16.5635 13.9713H20.6535L20.9355 10.8063H16.5635V7.71533H24.3135L24.2395 8.54433L23.4805 17.0623H16.5635V13.9713V13.9713Z" fill="white"/>
<path d="M16.5825 21.9984L16.5685 22.0024L13.1265 21.0724L12.9065 18.6074H9.80347L10.2365 23.4604L16.5675 25.2184L16.5825 25.2144V21.9984V21.9984Z" fill="#EBEBEB"/>
<path d="M20.3905 16.9312L20.0185 21.0702L16.5715 22.0002V25.2162L22.9075 23.4602L22.9545 22.9382L23.4915 16.9312H20.3905V16.9312Z" fill="white"/>
<path d="M16.5744 7.71533V10.8063H9.10842L9.04642 10.1113L8.90542 8.54433L8.83142 7.71533H16.5744V7.71533ZM16.5634 13.9713V17.0623H13.1644L13.1024 16.3673L12.9624 14.8003L12.8884 13.9713H16.5634V13.9713Z" fill="#EBEBEB"/>
</svg>
