<svg width="31" height="31" viewBox="0 0 31 31" fill="none" xmlns="http://www.w3.org/2000/svg">
<g clip-path="url(#clip0_83_609)">
<path fill-rule="evenodd" clip-rule="evenodd" d="M18.7286 4.21392L25.6582 7.77121C25.8583 7.58301 26.0879 7.42148 26.3399 7.29163C27.777 6.55704 29.6101 6.99319 30.4448 8.271C31.2711 9.54882 30.7805 11.1785 29.3433 11.9207C29.0932 12.0488 28.8236 12.1442 28.543 12.204V19.3212C28.8206 19.3812 29.0872 19.4759 29.3347 19.6027C30.7805 20.3449 31.2711 21.9746 30.4363 23.2525C29.6101 24.5302 27.7684 24.9663 26.3312 24.2318C26.0528 24.0898 25.8019 23.9088 25.5884 23.6957L18.701 27.2311C18.8018 27.5026 18.8531 27.7868 18.8527 28.0728C18.8527 29.5418 17.5103 30.7432 15.8493 30.7432C14.1883 30.7432 12.8459 29.5494 12.8459 28.0728C12.8459 27.8103 12.8883 27.5567 12.9674 27.3173L6.03964 23.761C5.84177 23.9455 5.61542 24.104 5.36737 24.2318C3.9216 24.9663 2.0885 24.5302 1.26229 23.2525C0.436185 21.9746 0.926737 20.3449 2.36383 19.6027C2.6114 19.4759 2.878 19.3811 3.15561 19.3211V12.204C2.87493 12.1442 2.6054 12.0488 2.35528 11.9207C0.918067 11.1862 0.427515 9.54882 1.25373 8.271C2.07995 6.99319 3.92149 6.55704 5.3587 7.29163C5.60932 7.42079 5.83777 7.58128 6.03706 7.76819L12.9686 4.20996C12.8869 3.96339 12.8456 3.70764 12.8459 3.45059C12.8459 1.97402 14.1883 0.780273 15.8493 0.780273C17.5103 0.780273 18.8527 1.97392 18.8527 3.45059C18.8527 3.716 18.8094 3.97215 18.7286 4.21392ZM18.0067 5.30996L24.9528 8.87559C24.8422 9.21934 24.8105 9.57936 24.8595 9.93424C24.9086 10.2891 25.0374 10.6316 25.2383 10.9413C25.6612 11.5953 26.3499 12.0288 27.1144 12.1978V19.3238C27.0754 19.3323 27.0366 19.3415 26.9981 19.3513L17.926 5.38131C17.9534 5.35798 17.9803 5.33423 18.0067 5.31007V5.30996ZM13.7745 5.38288L4.70248 19.3527C4.66325 19.3426 4.6238 19.3332 4.58415 19.3245V12.1978C5.34862 12.0288 6.03741 11.5953 6.46025 10.9413C6.66157 10.631 6.79052 10.2878 6.83937 9.9322C6.88822 9.57661 6.85599 9.2159 6.74459 8.87163L13.6887 5.30704C13.7167 5.33277 13.7453 5.35809 13.7745 5.38277V5.38288ZM16.6885 6.01569L25.7584 19.9824C25.5506 20.1586 25.3726 20.3606 25.2297 20.582C25.0871 20.8022 24.9805 21.0392 24.9131 21.286H6.78572C6.7182 21.0392 6.61153 20.8022 6.46892 20.582C6.32551 20.3621 6.14777 20.1614 5.94099 19.9858L15.0126 6.01631C15.2846 6.08594 15.5663 6.12115 15.8493 6.1209C16.1407 6.1209 16.4222 6.08423 16.6885 6.01569ZM18.0704 26.2738L24.9714 22.7313C24.9507 22.6735 24.9323 22.615 24.916 22.5561H6.78185C6.77223 22.5907 6.76184 22.6252 6.75069 22.6594L13.6854 26.2193C13.9655 25.9604 14.3016 25.7546 14.6734 25.6142C15.0453 25.4738 15.4453 25.4018 15.8493 25.4025C16.2674 25.4018 16.6811 25.479 17.0636 25.6291C17.4461 25.7792 17.7891 25.9988 18.0704 26.2738V26.2738Z" fill="#EEEEFF"/>
</g>
<defs>
<clipPath id="clip0_83_609">
<rect width="30" height="30" fill="white" transform="translate(0.849609 0.780273)"/>
</clipPath>
</defs>
</svg>
