<svg width="33" height="33" viewBox="0 0 33 33" fill="none" xmlns="http://www.w3.org/2000/svg">
<path d="M6.8919 27.9813L4.6449 2.78027H29.3349L27.0849 27.9773L16.9749 30.7803L6.8919 27.9813Z" fill="#E44F26"/>
<path d="M16.9899 28.6383L25.1599 26.3733L27.0819 4.84131H16.9899V28.6383Z" fill="#F1662A"/>
<path d="M16.9899 14.1872H12.8999L12.6179 11.0222H16.9899V7.93115H9.23987L9.31387 8.76115L10.0729 17.2782H16.9899V14.1872V14.1872ZM16.9899 22.2142L16.9759 22.2182L13.5339 21.2892L13.3139 18.8242H10.2109L10.6439 23.6762L16.9759 25.4342L16.9899 25.4302V22.2142Z" fill="#EBEBEB"/>
<path d="M16.9789 14.1872V17.2782H20.7849L20.4269 21.2872L16.9789 22.2172V25.4332L23.3159 23.6762L23.3619 23.1542L24.0879 15.0172L24.1639 14.1872H16.9789V14.1872ZM16.9789 7.93115V11.0222H24.4449L24.5069 10.3282L24.6479 8.76115L24.7219 7.93115H16.9789V7.93115Z" fill="white"/>
</svg>
