<svg width="33" height="33" viewBox="0 0 33 33" fill="none" xmlns="http://www.w3.org/2000/svg">
<g clip-path="url(#clip0_264_17)">
<path d="M0.228271 0.780273H32.2283V32.7803H0.228271V0.780273Z" fill="#F7DF1E"/>
<path d="M8.64221 27.5217L11.091 26.0397C11.5635 26.8773 11.9932 27.5861 13.0241 27.5861C14.0122 27.5861 14.6353 27.1996 14.6353 25.6961V15.4713H17.6425V25.7386C17.6425 28.8532 15.8167 30.2709 13.153 30.2709C10.7473 30.2709 9.35096 29.0251 8.64209 27.5214M19.2758 27.1994L21.7243 25.7818C22.369 26.8344 23.2067 27.6077 24.6887 27.6077C25.9348 27.6077 26.7293 26.9847 26.7293 26.1254C26.7293 25.0944 25.9131 24.7292 24.5383 24.1279L23.7867 23.8054C21.6171 22.8821 20.178 21.7221 20.178 19.2733C20.178 17.0178 21.8963 15.2993 24.5815 15.2993C26.4932 15.2993 27.868 15.9653 28.856 17.7052L26.5145 19.2089C25.9988 18.2853 25.4406 17.9202 24.5813 17.9202C23.7006 17.9202 23.1421 18.4787 23.1421 19.2089C23.1421 20.1111 23.7006 20.4764 24.9893 21.0349L25.7411 21.3571C28.2973 22.4527 29.7365 23.5696 29.7365 26.0826C29.7365 28.7893 27.61 30.2713 24.7531 30.2713C21.9607 30.2713 20.1563 28.9396 19.2757 27.1996" fill="black"/>
</g>
<defs>
<clipPath id="clip0_264_17">
<rect width="32" height="32" fill="white" transform="translate(0.228271 0.780273)"/>
</clipPath>
</defs>
</svg>
