<svg width="166" height="36" viewBox="0 0 166 36" fill="none" xmlns="http://www.w3.org/2000/svg">
<g filter="url(#filter0_d_15_65)">
<mask id="path-1-inside-1_15_65" fill="white">
<path fill-rule="evenodd" clip-rule="evenodd" d="M14.8582 3.96387C14.7338 3.96387 14.6123 3.97573 14.4945 3.9984C14.0621 4.03605 13.64 4.22037 13.309 4.55134L3.58729 14.2731C3.25586 14.6045 3.0715 15.0273 3.03419 15.4604C3.01175 15.5776 3 15.6986 3 15.8223C3 16.8786 3.85631 17.7349 4.91262 17.7349H32.4544C33.5107 17.7349 34.367 16.8786 34.367 15.8223C34.367 14.766 33.5107 13.9097 32.4544 13.9097H9.3604L15.481 7.78911H50.8155C51.8718 7.78911 52.7281 6.9328 52.7281 5.87649C52.7281 4.82018 51.8718 3.96387 50.8155 3.96387H14.8582ZM144.059 28.5706C143.312 29.3175 143.312 30.5285 144.059 31.2755C144.806 32.0224 146.017 32.0224 146.764 31.2755L162.44 15.5999C163.187 14.853 163.187 13.642 162.44 12.895C161.693 12.1481 160.482 12.1481 159.735 12.895L144.059 28.5706ZM70.3949 31.3629C70.5918 31.2711 70.7763 31.1439 70.9389 30.9813L90.1651 11.7551C90.912 11.0082 90.912 9.79717 90.1651 9.05025C89.4182 8.30332 88.2072 8.30332 87.4603 9.05024L68.5349 27.9756H50.378L58.935 19.4186C59.6819 18.6717 59.6819 17.4607 58.935 16.7137C58.188 15.9668 56.977 15.9668 56.2301 16.7137L44.5175 28.4264C44.2487 28.6951 44.0767 29.0239 44.0013 29.3696C43.955 29.5345 43.9302 29.7085 43.9302 29.8882C43.9302 30.9445 44.7865 31.8008 45.8428 31.8008H69.1768C69.6396 31.8008 70.064 31.6364 70.3949 31.3629ZM102.456 5.87649C102.456 4.82018 103.313 3.96387 104.369 3.96387H125.32H125.85C126.277 3.96387 126.683 4.05293 127.05 4.21347C128.023 4.50011 128.918 5.02661 129.648 5.75649C130.796 6.90428 131.441 8.46103 131.441 10.0843C131.441 11.7075 130.796 13.2642 129.648 14.412C129.14 14.9198 128.553 15.3291 127.915 15.6277C127.403 15.991 126.778 16.2046 126.103 16.2046H125.331L125.32 16.2046L118.167 16.2046L130.733 28.7708C131.48 29.5177 131.48 30.7287 130.733 31.4757C129.986 32.2226 128.775 32.2226 128.028 31.4757L112.607 16.0544C112.213 15.661 112.027 15.1389 112.048 14.6237C112.029 14.516 112.02 14.4052 112.02 14.292C112.02 13.2357 112.876 12.3794 113.932 12.3794H125.32V12.3639C125.925 12.3639 126.505 12.1237 126.932 11.6962C127.36 11.2687 127.6 10.6889 127.6 10.0843C127.6 9.47966 127.36 8.89983 126.932 8.47232C126.505 8.0448 125.925 7.80463 125.32 7.80463V7.78911H104.369C103.313 7.78911 102.456 6.9328 102.456 5.87649Z"/>
</mask>
<path fill-rule="evenodd" clip-rule="evenodd" d="M14.8582 3.96387C14.7338 3.96387 14.6123 3.97573 14.4945 3.9984C14.0621 4.03605 13.64 4.22037 13.309 4.55134L3.58729 14.2731C3.25586 14.6045 3.0715 15.0273 3.03419 15.4604C3.01175 15.5776 3 15.6986 3 15.8223C3 16.8786 3.85631 17.7349 4.91262 17.7349H32.4544C33.5107 17.7349 34.367 16.8786 34.367 15.8223C34.367 14.766 33.5107 13.9097 32.4544 13.9097H9.3604L15.481 7.78911H50.8155C51.8718 7.78911 52.7281 6.9328 52.7281 5.87649C52.7281 4.82018 51.8718 3.96387 50.8155 3.96387H14.8582ZM144.059 28.5706C143.312 29.3175 143.312 30.5285 144.059 31.2755C144.806 32.0224 146.017 32.0224 146.764 31.2755L162.44 15.5999C163.187 14.853 163.187 13.642 162.44 12.895C161.693 12.1481 160.482 12.1481 159.735 12.895L144.059 28.5706ZM70.3949 31.3629C70.5918 31.2711 70.7763 31.1439 70.9389 30.9813L90.1651 11.7551C90.912 11.0082 90.912 9.79717 90.1651 9.05025C89.4182 8.30332 88.2072 8.30332 87.4603 9.05024L68.5349 27.9756H50.378L58.935 19.4186C59.6819 18.6717 59.6819 17.4607 58.935 16.7137C58.188 15.9668 56.977 15.9668 56.2301 16.7137L44.5175 28.4264C44.2487 28.6951 44.0767 29.0239 44.0013 29.3696C43.955 29.5345 43.9302 29.7085 43.9302 29.8882C43.9302 30.9445 44.7865 31.8008 45.8428 31.8008H69.1768C69.6396 31.8008 70.064 31.6364 70.3949 31.3629ZM102.456 5.87649C102.456 4.82018 103.313 3.96387 104.369 3.96387H125.32H125.85C126.277 3.96387 126.683 4.05293 127.05 4.21347C128.023 4.50011 128.918 5.02661 129.648 5.75649C130.796 6.90428 131.441 8.46103 131.441 10.0843C131.441 11.7075 130.796 13.2642 129.648 14.412C129.14 14.9198 128.553 15.3291 127.915 15.6277C127.403 15.991 126.778 16.2046 126.103 16.2046H125.331L125.32 16.2046L118.167 16.2046L130.733 28.7708C131.48 29.5177 131.48 30.7287 130.733 31.4757C129.986 32.2226 128.775 32.2226 128.028 31.4757L112.607 16.0544C112.213 15.661 112.027 15.1389 112.048 14.6237C112.029 14.516 112.02 14.4052 112.02 14.292C112.02 13.2357 112.876 12.3794 113.932 12.3794H125.32V12.3639C125.925 12.3639 126.505 12.1237 126.932 11.6962C127.36 11.2687 127.6 10.6889 127.6 10.0843C127.6 9.47966 127.36 8.89983 126.932 8.47232C126.505 8.0448 125.925 7.80463 125.32 7.80463V7.78911H104.369C103.313 7.78911 102.456 6.9328 102.456 5.87649Z" fill="#EEEEFF" fill-opacity="0.85" shape-rendering="crispEdges"/>
<path d="M14.4945 3.9984L14.5813 4.99462L14.6328 4.99014L14.6835 4.98037L14.4945 3.9984ZM13.309 4.55134L12.6019 3.84423V3.84423L13.309 4.55134ZM3.58729 14.2731L4.2944 14.9802L4.2944 14.9802L3.58729 14.2731ZM3.03419 15.4604L4.01634 15.6485L4.02607 15.5977L4.0305 15.5462L3.03419 15.4604ZM9.3604 13.9097L8.65329 13.2026L6.94618 14.9097H9.3604V13.9097ZM15.481 7.78911V6.78911H15.0667L14.7738 7.082L15.481 7.78911ZM144.059 31.2755L144.766 30.5684V30.5684L144.059 31.2755ZM144.059 28.5706L144.766 29.2777V29.2777L144.059 28.5706ZM146.764 31.2755L146.057 30.5684V30.5684L146.764 31.2755ZM162.44 15.5999L163.147 16.307V16.307L162.44 15.5999ZM162.44 12.895L163.147 12.1879V12.1879L162.44 12.895ZM159.735 12.895L159.028 12.1879V12.1879L159.735 12.895ZM70.9389 30.9813L71.646 31.6884L71.646 31.6884L70.9389 30.9813ZM70.3949 31.3629L69.9724 30.4565L69.8563 30.5106L69.7576 30.5922L70.3949 31.3629ZM90.1651 11.7551L89.458 11.048V11.048L90.1651 11.7551ZM90.1651 9.05025L90.8722 8.34314V8.34314L90.1651 9.05025ZM87.4603 9.05024L86.7531 8.34314V8.34314L87.4603 9.05024ZM68.5349 27.9756V28.9756H68.9491L69.242 28.6827L68.5349 27.9756ZM50.378 27.9756L49.6709 27.2685L47.9638 28.9756H50.378V27.9756ZM58.935 19.4186L59.6421 20.1257V20.1257L58.935 19.4186ZM56.2301 16.7137L55.523 16.0066L56.2301 16.7137ZM44.5175 28.4264L43.8104 27.7193V27.7193L44.5175 28.4264ZM44.0013 29.3696L44.964 29.6402L44.9721 29.6116L44.9784 29.5826L44.0013 29.3696ZM127.05 4.21347L126.65 5.12983L126.708 5.15495L126.768 5.17268L127.05 4.21347ZM129.648 5.75649L130.355 5.04938V5.04938L129.648 5.75649ZM129.648 14.412L128.941 13.7049V13.7049L129.648 14.412ZM127.915 15.6277L127.491 14.7219L127.409 14.7602L127.335 14.8126L127.915 15.6277ZM125.331 16.2046V15.2046H125.33L125.331 16.2046ZM125.32 16.2046V17.2046H125.321L125.32 16.2046ZM118.167 16.2046V15.2046L115.753 15.2046L117.46 16.9117L118.167 16.2046ZM130.733 28.7708L130.026 29.4779L130.026 29.4779L130.733 28.7708ZM130.733 31.4757L130.026 30.7685L130.026 30.7685L130.733 31.4757ZM112.607 16.0544L113.314 15.3472L113.314 15.3472L112.607 16.0544ZM112.048 14.6237L113.047 14.6644L113.052 14.5572L113.033 14.4515L112.048 14.6237ZM125.32 12.3794V13.3794H126.32V12.3794H125.32ZM125.32 12.3639V11.3639H124.32V12.3639H125.32ZM126.932 8.47232L127.639 7.76521V7.76521L126.932 8.47232ZM125.32 7.80463H124.32V8.80463H125.32V7.80463ZM125.32 7.78911H126.32V6.78911H125.32V7.78911ZM14.6835 4.98037C14.7393 4.96964 14.7976 4.96387 14.8582 4.96387V2.96387C14.6701 2.96387 14.4852 2.98183 14.3055 3.01642L14.6835 4.98037ZM14.0161 5.25844C14.1746 5.09993 14.3744 5.01264 14.5813 4.99462L14.4078 3.00217C13.7497 3.05947 13.1053 3.34081 12.6019 3.84423L14.0161 5.25844ZM4.2944 14.9802L14.0161 5.25844L12.6019 3.84423L2.88018 13.566L4.2944 14.9802ZM4.0305 15.5462C4.04835 15.339 4.13567 15.1389 4.2944 14.9802L2.88018 13.566C2.37606 14.0701 2.09464 14.7156 2.03788 15.3746L4.0305 15.5462ZM4 15.8223C4 15.762 4.00571 15.704 4.01634 15.6485L2.05204 15.2723C2.01779 15.4511 2 15.6351 2 15.8223H4ZM4.91262 16.7349C4.4086 16.7349 4 16.3263 4 15.8223H2C2 17.4309 3.30403 18.7349 4.91262 18.7349V16.7349ZM32.4544 16.7349H4.91262V18.7349H32.4544V16.7349ZM33.367 15.8223C33.367 16.3263 32.9584 16.7349 32.4544 16.7349V18.7349C34.063 18.7349 35.367 17.4309 35.367 15.8223H33.367ZM32.4544 14.9097C32.9584 14.9097 33.367 15.3183 33.367 15.8223H35.367C35.367 14.2137 34.063 12.9097 32.4544 12.9097V14.9097ZM9.3604 14.9097H32.4544V12.9097H9.3604V14.9097ZM14.7738 7.082L8.65329 13.2026L10.0675 14.6168L16.1881 8.49622L14.7738 7.082ZM50.8155 6.78911H15.481V8.78911H50.8155V6.78911ZM51.7281 5.87649C51.7281 6.38052 51.3195 6.78911 50.8155 6.78911V8.78911C52.4241 8.78911 53.7281 7.48508 53.7281 5.87649H51.7281ZM50.8155 4.96387C51.3195 4.96387 51.7281 5.37246 51.7281 5.87649H53.7281C53.7281 4.2679 52.4241 2.96387 50.8155 2.96387V4.96387ZM14.8582 4.96387H50.8155V2.96387H14.8582V4.96387ZM144.766 30.5684C144.41 30.212 144.41 29.6341 144.766 29.2777L143.352 27.8635C142.215 29.001 142.215 30.8451 143.352 31.9826L144.766 30.5684ZM146.057 30.5684C145.701 30.9248 145.123 30.9248 144.766 30.5684L143.352 31.9826C144.49 33.12 146.334 33.12 147.471 31.9826L146.057 30.5684ZM161.733 14.8928L146.057 30.5684L147.471 31.9826L163.147 16.307L161.733 14.8928ZM161.733 13.6021C162.089 13.9585 162.089 14.5364 161.733 14.8928L163.147 16.307C164.284 15.1695 164.284 13.3254 163.147 12.1879L161.733 13.6021ZM160.442 13.6021C160.798 13.2457 161.376 13.2457 161.733 13.6021L163.147 12.1879C162.009 11.0505 160.165 11.0505 159.028 12.1879L160.442 13.6021ZM144.766 29.2777L160.442 13.6021L159.028 12.1879L143.352 27.8635L144.766 29.2777ZM70.2318 30.2742C70.1529 30.3531 70.0651 30.4133 69.9724 30.4565L70.8174 32.2692C71.1185 32.1288 71.3997 31.9347 71.646 31.6884L70.2318 30.2742ZM89.458 11.048L70.2318 30.2742L71.646 31.6884L90.8722 12.4622L89.458 11.048ZM89.458 9.75735C89.8144 10.1138 89.8144 10.6916 89.458 11.048L90.8722 12.4622C92.0097 11.3248 92.0097 9.48059 90.8722 8.34314L89.458 9.75735ZM88.1674 9.75735C88.5238 9.40095 89.1016 9.40095 89.458 9.75735L90.8722 8.34314C89.7348 7.20569 87.8906 7.20569 86.7531 8.34314L88.1674 9.75735ZM69.242 28.6827L88.1674 9.75735L86.7531 8.34314L67.8278 27.2685L69.242 28.6827ZM50.378 28.9756H68.5349V26.9756H50.378V28.9756ZM58.2279 18.7115L49.6709 27.2685L51.0851 28.6827L59.6421 20.1257L58.2279 18.7115ZM58.2279 17.4208C58.5843 17.7772 58.5843 18.3551 58.2279 18.7115L59.6421 20.1257C60.7795 18.9882 60.7795 17.1441 59.6421 16.0066L58.2279 17.4208ZM56.9372 17.4208C57.2936 17.0644 57.8715 17.0644 58.2279 17.4208L59.6421 16.0066C58.5046 14.8692 56.6605 14.8692 55.523 16.0066L56.9372 17.4208ZM45.2246 29.1335L56.9372 17.4208L55.523 16.0066L43.8104 27.7193L45.2246 29.1335ZM44.9784 29.5826C45.0142 29.4185 45.0953 29.2628 45.2246 29.1335L43.8104 27.7193C43.4022 28.1275 43.1392 28.6294 43.0243 29.1566L44.9784 29.5826ZM44.9302 29.8882C44.9302 29.8008 44.9422 29.7179 44.964 29.6402L43.0386 29.099C42.9678 29.3511 42.9302 29.6161 42.9302 29.8882H44.9302ZM45.8428 30.8008C45.3388 30.8008 44.9302 30.3922 44.9302 29.8882H42.9302C42.9302 31.4968 44.2342 32.8008 45.8428 32.8008V30.8008ZM69.1768 30.8008H45.8428V32.8008H69.1768V30.8008ZM69.7576 30.5922C69.5994 30.723 69.3985 30.8008 69.1768 30.8008V32.8008C69.8807 32.8008 70.5287 32.5498 71.0322 32.1335L69.7576 30.5922ZM104.369 2.96387C102.76 2.96387 101.456 4.26789 101.456 5.87649H103.456C103.456 5.37246 103.865 4.96387 104.369 4.96387V2.96387ZM125.32 2.96387H104.369V4.96387H125.32V2.96387ZM125.85 2.96387H125.32V4.96387H125.85V2.96387ZM127.451 3.29712C126.959 3.08245 126.417 2.96387 125.85 2.96387V4.96387C126.137 4.96387 126.407 5.02341 126.65 5.12983L127.451 3.29712ZM130.355 5.04938C129.506 4.20023 128.465 3.58771 127.333 3.25427L126.768 5.17268C127.581 5.41251 128.33 5.85299 128.941 6.46359L130.355 5.04938ZM132.441 10.0843C132.441 8.19581 131.691 6.38471 130.355 5.04938L128.941 6.46359C129.901 7.42386 130.441 8.72625 130.441 10.0843H132.441ZM130.355 15.1191C131.691 13.7838 132.441 11.9727 132.441 10.0843H130.441C130.441 11.4423 129.901 12.7447 128.941 13.7049L130.355 15.1191ZM128.338 16.5334C129.081 16.186 129.765 15.7098 130.355 15.1191L128.941 13.7049C128.516 14.1297 128.025 14.4721 127.491 14.7219L128.338 16.5334ZM126.103 17.2046C126.993 17.2046 127.819 16.9224 128.494 16.4428L127.335 14.8126C126.988 15.0596 126.564 15.2046 126.103 15.2046V17.2046ZM125.331 17.2046H126.103V15.2046H125.331V17.2046ZM125.321 17.2046L125.331 17.2046L125.33 15.2046L125.32 15.2046L125.321 17.2046ZM118.167 17.2046L125.32 17.2046V15.2046L118.167 15.2046V17.2046ZM131.44 28.0637L118.874 15.4975L117.46 16.9117L130.026 29.4779L131.44 28.0637ZM131.44 32.1828C132.578 31.0453 132.578 29.2011 131.44 28.0637L130.026 29.4779C130.382 29.8343 130.382 30.4121 130.026 30.7685L131.44 32.1828ZM127.321 32.1828C128.458 33.3202 130.303 33.3202 131.44 32.1828L130.026 30.7685C129.669 31.1249 129.092 31.1249 128.735 30.7685L127.321 32.1828ZM111.9 16.7615L127.321 32.1828L128.735 30.7685L113.314 15.3472L111.9 16.7615ZM111.049 14.5831C111.017 15.3657 111.301 16.1624 111.9 16.7615L113.314 15.3472C113.126 15.1596 113.037 14.9122 113.047 14.6644L111.049 14.5831ZM111.02 14.292C111.02 14.4631 111.034 14.6316 111.063 14.796L113.033 14.4515C113.024 14.4004 113.02 14.3472 113.02 14.292H111.02ZM113.932 11.3794C112.324 11.3794 111.02 12.6834 111.02 14.292H113.02C113.02 13.788 113.428 13.3794 113.932 13.3794V11.3794ZM125.32 11.3794H113.932V13.3794H125.32V11.3794ZM124.32 12.3639V12.3794H126.32V12.3639H124.32ZM126.225 10.9891C125.985 11.2291 125.66 11.3639 125.32 11.3639V13.3639C126.19 13.3639 127.024 13.0184 127.639 12.4033L126.225 10.9891ZM126.6 10.0843C126.6 10.4236 126.465 10.7491 126.225 10.9891L127.639 12.4033C128.254 11.7883 128.6 10.9541 128.6 10.0843H126.6ZM126.225 9.17942C126.465 9.4194 126.6 9.74488 126.6 10.0843H128.6C128.6 9.21445 128.254 8.38026 127.639 7.76521L126.225 9.17942ZM125.32 8.80463C125.66 8.80463 125.985 8.93945 126.225 9.17942L127.639 7.76521C127.024 7.15016 126.19 6.80463 125.32 6.80463V8.80463ZM124.32 7.78911V7.80463H126.32V7.78911H124.32ZM104.369 8.78911H125.32V6.78911H104.369V8.78911ZM101.456 5.87649C101.456 7.48508 102.76 8.78911 104.369 8.78911V6.78911C103.865 6.78911 103.456 6.38052 103.456 5.87649H101.456Z" fill="#EEEEFF" mask="url(#path-1-inside-1_15_65)"/>
</g>
<defs>
<filter id="filter0_d_15_65" x="0" y="0.963867" width="166" height="34.0718" filterUnits="userSpaceOnUse" color-interpolation-filters="sRGB">
<feFlood flood-opacity="0" result="BackgroundImageFix"/>
<feColorMatrix in="SourceAlpha" type="matrix" values="0 0 0 0 0 0 0 0 0 0 0 0 0 0 0 0 0 0 127 0" result="hardAlpha"/>
<feOffset/>
<feGaussianBlur stdDeviation="1.5"/>
<feComposite in2="hardAlpha" operator="out"/>
<feColorMatrix type="matrix" values="0 0 0 0 0.933333 0 0 0 0 0.933333 0 0 0 0 1 0 0 0 1 0"/>
<feBlend mode="normal" in2="BackgroundImageFix" result="effect1_dropShadow_15_65"/>
<feBlend mode="normal" in="SourceGraphic" in2="effect1_dropShadow_15_65" result="shape"/>
</filter>
</defs>
</svg>
