<svg width="33" height="33" viewBox="0 0 33 33" fill="none" xmlns="http://www.w3.org/2000/svg">
<g clip-path="url(#clip0_265_42)">
<path d="M15.6627 0.78844C15.5934 0.795107 15.3747 0.817773 15.1774 0.83244C10.6334 1.24311 6.37736 3.69511 3.67869 7.46444C2.18843 9.5334 1.21965 11.9316 0.854693 14.4551C0.726693 15.3351 0.710693 15.5938 0.710693 16.7858C0.710693 17.9778 0.726693 18.2378 0.854693 19.1164C1.72403 25.1258 6.00136 30.1738 11.8 32.0444C12.8387 32.3791 13.9334 32.6071 15.1774 32.7458C15.6627 32.7991 17.7587 32.7991 18.244 32.7458C20.392 32.5071 22.2134 31.9751 24.008 31.0591C24.284 30.9191 24.3374 30.8804 24.3 30.8498C23.4222 29.6921 22.5532 28.5276 21.6934 27.3564L19.1347 23.8991L15.9294 19.1538C14.8629 17.5666 13.7864 15.9861 12.7 14.4124C12.688 14.4084 12.676 16.5164 12.6694 19.0924C12.66 23.5991 12.656 23.7804 12.6 23.8871C12.5454 24.0116 12.448 24.1124 12.3254 24.1711C12.2254 24.2218 12.1387 24.2311 11.6654 24.2311H11.124L10.98 24.1404C10.8909 24.0842 10.8186 24.005 10.7707 23.9111L10.704 23.7711L10.7107 17.4991L10.72 11.2244L10.8174 11.1018C10.8829 11.0251 10.9614 10.9605 11.0494 10.9111C11.1774 10.8484 11.2267 10.8431 11.7694 10.8431C12.4067 10.8431 12.5134 10.8671 12.6787 11.0484C12.7254 11.0991 14.4614 13.7151 16.5387 16.8644L22.8507 26.4271L25.384 30.2644L25.5134 30.1804C26.7326 29.3699 27.8379 28.4 28.8 27.2964C30.8162 24.9888 32.1241 22.1486 32.5667 19.1164C32.6947 18.2364 32.7107 17.9778 32.7107 16.7858C32.7107 15.5938 32.6947 15.3351 32.5667 14.4551C31.6974 8.44711 27.42 3.39777 21.6214 1.52711C20.5376 1.18253 19.4217 0.94889 18.2907 0.829773C17.9894 0.797773 15.9227 0.763107 15.664 0.789773L15.6627 0.78844ZM22.2134 10.4684C22.2877 10.5059 22.3539 10.5577 22.4082 10.6208C22.4624 10.684 22.5036 10.7573 22.5294 10.8364C22.5534 10.9164 22.56 12.6564 22.5534 16.5764L22.544 22.2004L21.5534 20.6804L20.5587 19.1604V15.0724C20.5587 12.4284 20.5707 10.9431 20.5894 10.8711C20.6116 10.7878 20.6504 10.7099 20.7036 10.6421C20.7568 10.5742 20.8231 10.5179 20.8987 10.4764C21.028 10.4098 21.0747 10.4044 21.5654 10.4044C22.028 10.4044 22.1094 10.4111 22.2134 10.4671V10.4684Z" fill="#E2E6E8"/>
</g>
<defs>
<clipPath id="clip0_265_42">
<rect width="32" height="32" fill="white" transform="translate(0.710693 0.780273)"/>
</clipPath>
</defs>
</svg>
