<svg width="31" height="31" viewBox="0 0 31 31" fill="none" xmlns="http://www.w3.org/2000/svg">
<path fill-rule="evenodd" clip-rule="evenodd" d="M23.9105 23.4776L12.2189 26.9632C12.1375 26.9879 12.051 26.991 11.9679 26.9723C11.8849 26.9536 11.8081 26.9137 11.7451 26.8565C11.6821 26.7992 11.6351 26.7266 11.6085 26.6458C11.5819 26.5649 11.5768 26.4785 11.5936 26.3951L15.7711 6.2285C15.7888 6.14612 15.8318 6.07135 15.8942 6.01469C15.9565 5.95803 16.035 5.92233 16.1187 5.91261C16.2024 5.90288 16.2871 5.91962 16.3607 5.96048C16.4344 6.00133 16.4934 6.06424 16.5295 6.14037L24.263 22.6976C24.2976 22.7712 24.3159 22.8514 24.3166 22.9328C24.3172 23.0142 24.3002 23.0947 24.2667 23.1689C24.2332 23.243 24.184 23.309 24.1225 23.3623C24.061 23.4156 23.9886 23.4549 23.9105 23.4776ZM25.9158 22.6544L16.9636 3.4835C16.8536 3.24704 16.6812 3.04504 16.465 2.89919C16.2487 2.75334 15.9969 2.66915 15.7364 2.65569C15.4759 2.63777 15.2156 2.6921 14.984 2.81269C14.7524 2.93328 14.5586 3.11544 14.4239 3.33912L4.7161 19.2007C4.56801 19.4408 4.49099 19.7179 4.49398 20C4.49697 20.2821 4.57983 20.5575 4.73297 20.7944L9.48047 28.2091C9.65936 28.4862 9.9232 28.6979 10.2325 28.8125C10.5418 28.9271 10.8798 28.9384 11.1961 28.8447L24.9773 24.7357C25.1855 24.6751 25.378 24.57 25.5417 24.4279C25.7053 24.2857 25.8362 24.1097 25.9253 23.9121C26.0144 23.7144 26.0596 23.4998 26.0578 23.283C26.056 23.0663 26.0072 22.8524 25.9148 22.6563L25.9158 22.6544Z" fill="#EEEEFF"/>
</svg>
