<svg width="33" height="33" viewBox="0 0 33 33" fill="none" xmlns="http://www.w3.org/2000/svg">
<g clip-path="url(#clip0_265_16)">
<path d="M16.3453 0.789551C8.20951 0.789551 8.71749 4.31771 8.71749 4.31771L8.72653 7.97299H16.4904V9.0704H5.64285C5.64285 9.0704 0.436768 8.47997 0.436768 16.6889C0.436768 24.8981 4.98077 24.607 4.98077 24.607H7.69261V20.7976C7.69261 20.7976 7.54642 16.2536 12.1641 16.2536H19.8644C19.8644 16.2536 24.1907 16.3235 24.1907 12.0724V5.04342C24.1907 5.04342 24.8477 0.789551 16.3453 0.789551ZM12.0643 3.24765C12.2478 3.24749 12.4295 3.2835 12.599 3.35363C12.7685 3.42377 12.9226 3.52664 13.0523 3.65637C13.182 3.7861 13.2849 3.94014 13.355 4.10967C13.4252 4.2792 13.4612 4.46089 13.461 4.64436C13.4612 4.82782 13.4252 5.00952 13.355 5.17905C13.2849 5.34858 13.182 5.50262 13.0523 5.63235C12.9226 5.76208 12.7685 5.86495 12.599 5.93508C12.4295 6.00522 12.2478 6.04123 12.0643 6.04106C11.8808 6.04123 11.6992 6.00522 11.5296 5.93508C11.3601 5.86495 11.2061 5.76208 11.0763 5.63235C10.9466 5.50262 10.8437 5.34858 10.7736 5.17905C10.7035 5.00952 10.6674 4.82782 10.6676 4.64436C10.6674 4.46089 10.7035 4.2792 10.7736 4.10967C10.8437 3.94014 10.9466 3.7861 11.0763 3.65637C11.2061 3.52664 11.3601 3.42377 11.5296 3.35363C11.6992 3.2835 11.8808 3.24749 12.0643 3.24765V3.24765Z" fill="url(#paint0_linear_265_16)"/>
<path d="M16.5763 32.6707C24.7121 32.6707 24.2041 29.1426 24.2041 29.1426L24.195 25.4874H16.4311V24.39H27.2786C27.2786 24.39 32.4847 24.9805 32.4847 16.7713C32.4847 8.56219 27.9407 8.85333 27.9407 8.85333H25.2288V12.6626C25.2288 12.6626 25.375 17.2066 20.7574 17.2066H13.057C13.057 17.2066 8.73076 17.1367 8.73076 21.3879V28.417C8.73076 28.417 8.07382 32.6707 16.5762 32.6707H16.5763ZM20.8573 30.2129C20.6738 30.2131 20.4921 30.177 20.3226 30.1069C20.153 30.0368 19.999 29.9339 19.8693 29.8042C19.7395 29.6744 19.6367 29.5204 19.5665 29.3509C19.4964 29.1813 19.4604 28.9996 19.4606 28.8162C19.4604 28.6327 19.4964 28.451 19.5665 28.2815C19.6366 28.1119 19.7395 27.9579 19.8692 27.8281C19.999 27.6984 20.153 27.5955 20.3225 27.5253C20.4921 27.4552 20.6738 27.4192 20.8573 27.4194C21.0407 27.4192 21.2224 27.4552 21.3919 27.5253C21.5615 27.5955 21.7155 27.6983 21.8452 27.8281C21.975 27.9578 22.0779 28.1118 22.148 28.2814C22.2181 28.4509 22.2541 28.6326 22.254 28.8161C22.2541 28.9995 22.2181 29.1812 22.148 29.3507C22.0779 29.5203 21.975 29.6743 21.8452 29.804C21.7155 29.9338 21.5615 30.0366 21.3919 30.1068C21.2224 30.1769 21.0407 30.2129 20.8573 30.2128V30.2129Z" fill="url(#paint1_linear_265_16)"/>
</g>
<defs>
<linearGradient id="paint0_linear_265_16" x1="3.51656" y1="3.65708" x2="19.3986" y2="19.3806" gradientUnits="userSpaceOnUse">
<stop stop-color="#387EB8"/>
<stop offset="1" stop-color="#366994"/>
</linearGradient>
<linearGradient id="paint1_linear_265_16" x1="13.2649" y1="13.7537" x2="30.3203" y2="29.8767" gradientUnits="userSpaceOnUse">
<stop stop-color="#FFE052"/>
<stop offset="1" stop-color="#FFC331"/>
</linearGradient>
<clipPath id="clip0_265_16">
<rect width="32.13" height="32" fill="white" transform="translate(0.41626 0.780273)"/>
</clipPath>
</defs>
</svg>
