<svg width="37" height="33" viewBox="0 0 37 33" fill="none" xmlns="http://www.w3.org/2000/svg">
<g clip-path="url(#clip0_265_14)">
<path d="M30.5141 11.1415C30.1318 11.0103 29.7461 10.8888 29.3576 10.777C29.4229 10.5104 29.483 10.2469 29.5363 9.98811C30.4118 5.73814 29.8395 2.31428 27.8845 1.18699C26.0101 0.106284 22.9447 1.23316 19.8489 3.92748C19.5438 4.19349 19.2454 4.46717 18.9541 4.74825C18.7591 4.56134 18.5607 4.37806 18.3589 4.19849C15.1143 1.31765 11.8621 0.103477 9.90922 1.234C8.03652 2.31807 7.48199 5.53674 8.2702 9.56453C8.34862 9.96344 8.43716 10.3603 8.53574 10.7547C8.07539 10.8855 7.63118 11.0247 7.20606 11.173C3.40199 12.4993 0.972656 14.5777 0.972656 16.7337C0.972656 18.9603 3.58066 21.1937 7.54276 22.548C7.86398 22.6573 8.18787 22.7586 8.51413 22.8518C8.40817 23.2766 8.3141 23.7043 8.23202 24.1344C7.48059 28.0922 8.06739 31.2348 9.93504 32.312C11.864 33.4245 15.1016 32.2812 18.2541 29.5254C18.5097 29.3013 18.7597 29.0709 19.0038 28.8344C19.3193 29.1388 19.6431 29.4343 19.975 29.7206C23.0288 32.3482 26.0447 33.4093 27.9105 32.3292C29.8376 31.2135 30.464 27.8375 29.6508 23.7301C29.5868 23.4084 29.5149 23.0882 29.4354 22.7699C29.6628 22.7025 29.8859 22.6332 30.1035 22.561C34.2225 21.1964 36.9025 18.9901 36.9025 16.7337C36.9025 14.5699 34.3947 12.4774 30.5141 11.1415V11.1415ZM29.6208 21.1042C29.4243 21.1692 29.2228 21.2319 29.0173 21.293C28.5626 19.8534 27.9489 18.3227 27.1979 16.7411C27.9146 15.1972 28.5046 13.6861 28.9466 12.2559C29.3141 12.3623 29.6708 12.4744 30.0146 12.5927C33.3395 13.7374 35.3676 15.4297 35.3676 16.7337C35.3676 18.1226 33.1773 19.9257 29.6208 21.1042V21.1042ZM28.1451 24.0282C28.5047 25.8444 28.556 27.4865 28.3178 28.7703C28.1039 29.9238 27.6736 30.6928 27.1414 31.0009C26.0091 31.6563 23.5877 30.8044 20.9762 28.5571C20.6674 28.2909 20.3662 28.0162 20.0727 27.7332C21.0852 26.626 22.097 25.3388 23.0845 23.9092C24.8215 23.7551 26.4625 23.5031 27.9506 23.1591C28.0223 23.4472 28.0872 23.737 28.1451 24.0282V24.0282ZM13.2219 30.8876C12.1157 31.2782 11.2346 31.2894 10.7019 30.9824C9.56859 30.3287 9.09743 27.8054 9.74009 24.4207C9.81649 24.0207 9.90396 23.6229 10.0024 23.2278C11.4741 23.5534 13.1032 23.7875 14.8442 23.9287C15.8385 25.3276 16.8795 26.6134 17.9286 27.7393C17.7056 27.955 17.4774 28.1652 17.2441 28.3697C15.85 29.5882 14.4531 30.4528 13.2219 30.8876V30.8876ZM8.03932 21.0956C6.28732 20.4967 4.84045 19.7185 3.84873 18.8692C2.9575 18.1061 2.50767 17.3484 2.50767 16.7337C2.50767 15.4253 4.45813 13.7565 7.71132 12.6224C8.10613 12.4848 8.51932 12.355 8.9481 12.2332C9.39778 13.6956 9.98753 15.2247 10.6993 16.771C9.97827 18.3401 9.38009 19.8937 8.92606 21.3734C8.62825 21.2881 8.33258 21.1955 8.03932 21.0956V21.0956ZM9.77659 9.26965C9.10136 5.81885 9.54978 3.21576 10.6783 2.56242C11.8803 1.86656 14.5383 2.8587 17.3398 5.34628C17.5225 5.50886 17.7022 5.67474 17.8789 5.84383C16.835 6.96481 15.8035 8.24102 14.8181 9.63162C13.1283 9.78825 11.5108 10.0398 10.0236 10.3767C9.93198 10.0099 9.84961 9.64079 9.77659 9.26979V9.26965ZM25.2751 13.0967C24.9238 12.49 24.5596 11.8909 24.1825 11.2998C25.3289 11.4448 26.4273 11.6372 27.4587 11.8725C27.1491 12.865 26.7631 13.9026 26.3088 14.9665C25.9767 14.3364 25.6321 13.713 25.2751 13.0967V13.0967ZM18.9548 6.94081C19.6628 7.70783 20.3718 8.56411 21.0692 9.49323C19.6545 9.42642 18.2374 9.42614 16.8226 9.49239C17.5207 8.57183 18.2358 7.71667 18.9548 6.94081ZM12.594 13.1073C12.2415 13.7186 11.9033 14.3381 11.5797 14.9652C11.1328 13.9052 10.7503 12.8628 10.4381 11.8562C11.4632 11.6268 12.5564 11.4393 13.6955 11.297C13.3142 11.8917 12.9469 12.4952 12.594 13.1071V13.1073ZM13.7282 22.2795C12.5513 22.1481 11.4417 21.9703 10.4169 21.7471C10.7341 20.7226 11.1249 19.658 11.5815 18.5752C11.9064 19.2028 12.246 19.8227 12.6 20.4343C12.9641 21.0631 13.3411 21.6789 13.7282 22.2795ZM18.9972 26.6346C18.2696 25.8497 17.544 24.9814 16.8354 24.0475C17.5234 24.0744 18.2247 24.0882 18.9376 24.0882C19.6699 24.0882 20.3938 24.0718 21.1064 24.04C20.4068 24.9908 19.7004 25.8604 18.9972 26.6346ZM26.3233 18.5199C26.8035 19.6146 27.2083 20.6736 27.5297 21.6806C26.488 21.9184 25.3633 22.1098 24.1781 22.252C24.5579 21.6499 24.9256 21.0404 25.2811 20.4238C25.6426 19.797 25.9901 19.1622 26.3233 18.5199V18.5199ZM23.9516 19.6569C23.4074 20.6023 22.8325 21.5298 22.228 22.4379C21.1329 22.5155 20.0354 22.554 18.9376 22.5534C17.8194 22.5534 16.7318 22.5186 15.6845 22.4507C15.0642 21.5447 14.4784 20.6156 13.9283 19.6653H13.9284C13.381 18.7201 12.8696 17.7543 12.3954 16.7703C12.8684 15.786 13.3782 14.8198 13.9238 13.8739L13.9237 13.874C14.4691 12.9278 15.0502 12.0026 15.6658 11.1005C16.7343 11.0197 17.8301 10.9776 18.9374 10.9776H18.9376C20.05 10.9776 21.1471 11.0201 22.2153 11.1015C22.8247 12.0023 23.4022 12.9242 23.9466 13.8657C24.494 14.8096 25.0106 15.7711 25.4955 16.7485C25.0155 17.736 24.5006 18.7061 23.9516 19.6569V19.6569ZM27.1179 2.51667C28.321 3.21056 28.7889 6.00874 28.033 9.67821C27.9847 9.91232 27.9306 10.1508 27.8716 10.3926C26.3808 10.0485 24.7621 9.7926 23.0674 9.63358C22.0802 8.22769 21.0571 6.94951 20.0302 5.84299C20.2993 5.58355 20.5749 5.33084 20.8566 5.08509C23.5092 2.77674 25.9884 1.8653 27.1179 2.51667V2.51667ZM18.9376 13.5252C20.7095 13.5252 22.146 14.9617 22.146 16.7337C22.146 18.5056 20.7095 19.9421 18.9376 19.9421C17.1656 19.9421 15.7291 18.5056 15.7291 16.7337C15.7291 14.9617 17.1656 13.5252 18.9376 13.5252V13.5252Z" fill="#00D8FF"/>
</g>
<defs>
<clipPath id="clip0_265_14">
<rect width="35.93" height="32" fill="white" transform="translate(0.972656 0.780273)"/>
</clipPath>
</defs>
</svg>
