<svg width="36" height="33" viewBox="0 0 36 33" fill="none" xmlns="http://www.w3.org/2000/svg">
<g clip-path="url(#clip0_265_9)">
<path d="M22.3102 20.6045L21.6271 21.7909C21.526 21.9664 21.3804 22.1122 21.2049 22.2136C21.0295 22.315 20.8305 22.3684 20.6279 22.3684H15.3941C15.1914 22.3684 14.9924 22.315 14.817 22.2136C14.6416 22.1122 14.496 21.9664 14.3948 21.7909L13.7116 20.6045H22.3101H22.3102ZM24.2229 17.2835L23.0183 19.3751H13.0037L11.7991 17.2835H24.2229V17.2835ZM23.0625 14.0359L24.2248 16.0541H11.7971L12.9594 14.0359H23.0625V14.0359ZM20.6277 10.9658C20.8304 10.9658 21.0294 11.0192 21.2049 11.1205C21.3803 11.2219 21.526 11.3678 21.6271 11.5434L22.3545 12.8065H13.6674L14.395 11.5434C14.4961 11.3678 14.6417 11.222 14.8171 11.1206C14.9925 11.0192 15.1916 10.9658 15.3942 10.9658H20.6279H20.6277Z" fill="#00435B"/>
<path d="M7.77713 10.4154C7.19737 7.6041 7.07285 5.44786 7.44767 3.88222C7.67055 2.95102 8.07793 2.19137 8.69762 1.64319C9.35181 1.06455 10.1788 0.780586 11.1082 0.780586C12.6411 0.780586 14.2528 1.47972 15.975 2.80772C16.6776 3.34949 17.4066 4.00243 18.1638 4.76695C18.2242 4.68946 18.2922 4.61627 18.3682 4.54852C20.5088 2.64104 22.3111 1.45565 23.8527 0.998742C24.7693 0.726882 25.6298 0.701003 26.4134 0.964795C27.2406 1.24306 27.8997 1.81864 28.3648 2.62462C29.1323 3.95485 29.3346 5.70274 29.0485 7.86107C28.9319 8.74079 28.7325 9.69899 28.4508 10.7373C28.5571 10.7501 28.6637 10.7738 28.7691 10.8087C31.4851 11.7089 33.4084 12.6767 34.5728 13.7829C35.2657 14.441 35.718 15.1736 35.8816 15.9848C36.0541 16.8408 35.8858 17.6994 35.4214 18.5048C34.6553 19.8332 33.2468 20.8808 31.2402 21.7105C30.4347 22.0438 29.5229 22.3455 28.5044 22.617C28.5508 22.7219 28.587 22.8333 28.6111 22.9502C29.1908 25.7615 29.3152 27.9177 28.9405 29.4833C28.7176 30.4145 28.3101 31.1742 27.6904 31.7224C27.0364 32.301 26.2093 32.585 25.28 32.585C23.7469 32.585 22.1354 31.8858 20.4132 30.5578C19.7031 30.0102 18.966 29.3492 18.2001 28.5741C18.1195 28.7001 18.0219 28.8144 17.9101 28.9139C15.7695 30.8216 13.9672 32.0067 12.4256 32.4638C11.509 32.7356 10.6485 32.7615 9.86492 32.4977C9.03765 32.2195 8.37859 31.6439 7.91348 30.8379C7.14603 29.5077 6.94374 27.7598 7.22979 25.6015C7.35069 24.69 7.56036 23.6941 7.85838 22.6122C7.73959 22.6002 7.62249 22.5751 7.50916 22.5375C4.7932 21.6374 2.86986 20.6696 1.70548 19.5633C1.01261 18.9052 0.560294 18.1726 0.396677 17.3615C0.224155 16.5054 0.392503 15.6467 0.85692 14.8412C1.62297 13.513 3.03153 12.4653 5.03807 11.6357C5.8677 11.2924 6.80975 10.9827 7.8652 10.705C7.82699 10.6114 7.79751 10.5144 7.77713 10.4154V10.4154Z" fill="#002B3B"/>
<path d="M26.7161 23.2268C26.8457 23.2039 26.9792 23.2317 27.0889 23.3044C27.1986 23.3772 27.2761 23.4894 27.3053 23.6178L27.3085 23.6334L27.3373 23.7829C28.2709 28.6909 27.6132 31.145 25.3645 31.145C23.1644 31.145 20.3636 29.051 16.9621 24.8629C16.9017 24.7884 16.8633 24.6985 16.8514 24.6034C16.8395 24.5083 16.8546 24.4117 16.8948 24.3247C16.9351 24.2377 16.9989 24.1637 17.0791 24.1111C17.1593 24.0586 17.2526 24.0296 17.3485 24.0274H17.3643L17.5435 24.0287C18.9749 24.0364 20.3663 23.9865 21.718 23.8789C23.3134 23.7519 24.9795 23.5346 26.7161 23.2268V23.2268ZM11.2725 19.5168L11.2811 19.5314L11.371 19.6882C12.0913 20.9404 12.8416 22.1288 13.6221 23.2537C14.5415 24.5782 15.5752 25.9192 16.7234 27.2765C16.8086 27.3772 16.8517 27.507 16.8437 27.6387C16.8356 27.7704 16.7772 27.8939 16.6804 27.9836L16.6674 27.9951L16.5519 28.0946C12.7527 31.3498 10.2834 31.9997 9.14408 30.0441C8.02867 28.1301 8.43313 24.6496 10.3572 19.6028C10.3912 19.5134 10.4496 19.4353 10.5258 19.3773C10.602 19.3194 10.6928 19.284 10.7881 19.275C10.8833 19.2661 10.9792 19.284 11.0648 19.3267C11.1504 19.3694 11.2224 19.4353 11.2725 19.5168V19.5168ZM28.6439 12.2745L28.6595 12.2796L28.8025 12.3289C33.4919 13.9602 35.2735 15.7529 34.1474 17.707C33.046 19.6181 29.844 21.0097 24.5416 21.8815C24.4455 21.8973 24.3469 21.8854 24.2573 21.8472C24.1678 21.8089 24.0909 21.746 24.0358 21.6657C23.9808 21.5854 23.9497 21.491 23.9463 21.3937C23.9429 21.2963 23.9673 21.2001 24.0167 21.1161C24.7761 19.8241 25.4602 18.5388 26.0687 17.2598C26.7588 15.8094 27.4065 14.2524 28.0117 12.5892C28.0557 12.4683 28.1435 12.3684 28.2577 12.3092C28.3719 12.2501 28.5042 12.236 28.6283 12.2699L28.6439 12.2745V12.2745ZM12.0795 11.4532C12.1375 11.4873 12.1882 11.5325 12.2288 11.5862C12.2694 11.6399 12.299 11.7011 12.3159 11.7662C12.3328 11.8313 12.3368 11.8992 12.3275 11.9658C12.3182 12.0325 12.2958 12.0967 12.2617 12.1547C11.5021 13.4465 10.8181 14.732 10.2095 16.011C9.51946 17.4614 8.8718 19.0183 8.26659 20.6816C8.22165 20.8051 8.13099 20.9066 8.01333 20.9652C7.89567 21.0238 7.76001 21.0349 7.63438 20.9963L7.6188 20.9912L7.47577 20.9418C2.78638 19.3106 1.00481 17.5178 2.13093 15.5638C3.23229 13.6526 6.43424 12.2611 11.7366 11.3893C11.8549 11.3699 11.9762 11.3924 12.0795 11.4532ZM27.1342 3.41871C28.2496 5.33286 27.8452 8.81335 25.9211 13.8602C25.8871 13.9496 25.8286 14.0277 25.7525 14.0856C25.6763 14.1435 25.5855 14.179 25.4902 14.1879C25.3949 14.1969 25.2991 14.179 25.2135 14.1362C25.1278 14.0935 25.0559 14.0277 25.0058 13.9461L24.9972 13.9315L24.9073 13.7747C24.187 12.5226 23.4367 11.3341 22.6562 10.2092C21.7368 8.88472 20.703 7.54378 19.5549 6.18643C19.4697 6.08569 19.4266 5.95598 19.4346 5.82428C19.4426 5.69257 19.5011 5.56903 19.5979 5.47937L19.6109 5.46782L19.7263 5.36834C23.5256 2.11311 25.9949 1.46323 27.1342 3.41871V3.41871ZM11.1061 2.25391C13.3063 2.25391 16.1071 4.34782 19.5085 8.53592C19.5689 8.61036 19.6072 8.70025 19.6191 8.79539C19.631 8.89053 19.616 8.98709 19.5757 9.07412C19.5355 9.16114 19.4717 9.23513 19.3915 9.28768C19.3113 9.34023 19.218 9.36924 19.1221 9.3714H19.1062L18.927 9.37029C17.4958 9.3625 16.1042 9.41244 14.7527 9.51999C13.1572 9.64702 11.4911 9.86434 9.75445 10.1721C9.62484 10.195 9.49138 10.1672 9.38171 10.0944C9.27205 10.0217 9.19458 9.90948 9.16537 9.78114L9.16203 9.76542L9.13323 9.61599C8.19967 4.70789 8.85719 2.25391 11.1061 2.25391Z" fill="#FF4154"/>
<path d="M15.815 11.0298H20.2081C20.5238 11.0298 20.8338 11.1131 21.107 11.2712C21.3801 11.4294 21.6067 11.6569 21.7638 11.9307L23.9697 15.7743C24.1256 16.046 24.2077 16.3538 24.2077 16.6671C24.2077 16.9803 24.1256 17.2882 23.9697 17.5599L21.7638 21.4035C21.6067 21.6772 21.3801 21.9047 21.107 22.0629C20.8338 22.221 20.5238 22.3043 20.2081 22.3044H15.815C15.1725 22.3044 14.5791 21.9607 14.2592 21.4035L12.0536 17.5599C11.8976 17.2882 11.8156 16.9803 11.8156 16.6671C11.8156 16.3538 11.8976 16.046 12.0536 15.7743L14.2593 11.9307C14.4165 11.6569 14.643 11.4294 14.9162 11.2712C15.1894 11.1131 15.4994 11.0298 15.8151 11.0298H15.815ZM19.5385 12.1899C20.1813 12.1899 20.7751 12.5339 21.0947 13.0916L22.6329 15.7751C22.7885 16.0466 22.8704 16.3541 22.8704 16.6671C22.8704 16.98 22.7885 17.2875 22.6329 17.559L21.0947 20.2426C20.9376 20.5165 20.711 20.7442 20.4378 20.9025C20.1645 21.0608 19.8543 21.1442 19.5385 21.1442H16.4846C15.8418 21.1442 15.248 20.8002 14.9284 20.2426L13.3902 17.559C13.2346 17.2875 13.1527 16.98 13.1527 16.6671C13.1527 16.3541 13.2346 16.0466 13.3902 15.7751L14.9284 13.0916C15.0855 12.8176 15.3121 12.59 15.5853 12.4317C15.8585 12.2734 16.1687 12.19 16.4845 12.19H19.5385V12.1899ZM18.8168 13.4587H17.2063C16.8908 13.4587 16.5808 13.5419 16.3077 13.7C16.0347 13.858 15.8081 14.0853 15.6509 14.3589L14.8381 15.7734C14.6819 16.0453 14.5997 16.3535 14.5997 16.6671C14.5997 16.9807 14.6819 17.2888 14.8381 17.5607L15.6509 18.9754C15.8081 19.249 16.0347 19.4763 16.3077 19.6343C16.5808 19.7924 16.8908 19.8756 17.2063 19.8756H18.8168C19.4591 19.8756 20.0523 19.5322 20.3722 18.9754L21.185 17.5607C21.3412 17.2888 21.4234 16.9807 21.4234 16.6671C21.4234 16.3535 21.3412 16.0453 21.185 15.7734L20.3722 14.3588C20.215 14.0852 19.9885 13.8579 19.7154 13.6998C19.4423 13.5418 19.1324 13.4586 18.8168 13.4586V13.4587ZM18.122 14.6732C18.7637 14.6732 19.3565 15.016 19.6765 15.572L19.7919 15.7723C19.9485 16.0445 20.031 16.353 20.031 16.6671C20.031 16.9811 19.9485 17.2896 19.7919 17.5618L19.6765 17.7622C19.5193 18.0354 19.2927 18.2623 19.0198 18.4201C18.7469 18.5779 18.4373 18.661 18.122 18.6609H17.9011C17.5858 18.661 17.2762 18.5779 17.0033 18.4201C16.7304 18.2623 16.5039 18.0354 16.3466 17.7622L16.2312 17.5618C16.0746 17.2896 15.9921 16.9811 15.9921 16.6671C15.9921 16.353 16.0746 16.0445 16.2312 15.7723L16.3466 15.572C16.5039 15.2988 16.7304 15.0718 17.0033 14.9141C17.2762 14.7563 17.5858 14.6732 17.9011 14.6732H18.122ZM18.0118 15.8696C17.8717 15.8695 17.7341 15.9063 17.6127 15.9763C17.4913 16.0463 17.3905 16.147 17.3204 16.2683C17.2503 16.3895 17.2134 16.5271 17.2134 16.6671C17.2134 16.8071 17.2503 16.9446 17.3204 17.0658C17.3904 17.1871 17.4912 17.2879 17.6125 17.3579C17.7339 17.4279 17.8715 17.4648 18.0116 17.4648C18.1517 17.4648 18.2894 17.4279 18.4107 17.3579C18.532 17.2879 18.6328 17.1871 18.7029 17.0658C18.7729 16.9446 18.8098 16.8071 18.8098 16.6671C18.8098 16.5271 18.7729 16.3895 18.7029 16.2683C18.6328 16.1471 18.5321 16.0464 18.4108 15.9764C18.2895 15.9064 18.1519 15.8696 18.0118 15.8696V15.8696ZM11.541 16.6671H12.9768Z" fill="#FFD94C"/>
</g>
<defs>
<clipPath id="clip0_265_9">
<rect width="35.62" height="32" fill="white" transform="translate(0.329102 0.780273)"/>
</clipPath>
</defs>
</svg>
