<svg width="35" height="33" viewBox="0 0 35 33" fill="none" xmlns="http://www.w3.org/2000/svg">
<g clip-path="url(#clip0_270_46)">
<path d="M23.9769 23.0403C25.2159 22.9121 26.1558 21.844 26.1131 20.5622C26.0705 19.2805 25.0023 18.255 23.7206 18.255H23.6352C22.3106 18.2978 21.2853 19.4086 21.328 20.7331C21.3708 21.374 21.627 21.9294 22.0116 22.3139C20.559 25.1766 18.3373 27.2701 15.0049 29.0218C12.7405 30.2182 10.3907 30.6455 8.04095 30.3464C6.11832 30.09 4.62298 29.2356 3.68291 27.8255C2.31583 25.732 2.1877 23.4675 3.34128 21.2031C4.15308 19.5795 5.43465 18.3832 6.24646 17.785C6.07557 17.2296 5.81918 16.2896 5.69105 15.6061C-0.50397 20.0923 0.136948 26.1593 2.01682 29.0218C3.42665 31.1582 6.28921 32.4827 9.45078 32.4827C10.3052 32.4827 11.1596 32.3972 12.0142 32.1837C17.4829 31.1155 21.6272 27.8683 23.9769 23.0403V23.0403ZM31.4964 17.7424C28.2493 13.9397 23.4643 11.8462 17.9956 11.8462H17.312C16.9275 11.0772 16.1157 10.5644 15.2185 10.5644H15.133C13.8087 10.6072 12.7834 11.718 12.826 13.0426C12.8688 14.3243 13.9368 15.3497 15.2185 15.3497H15.3039C16.2438 15.307 17.0556 14.7088 17.3974 13.897H18.1665C21.4135 13.897 24.4896 14.8369 27.2668 16.6742C29.4029 18.0841 30.941 19.9214 31.7954 22.143C32.5217 23.9375 32.479 25.6893 31.7099 27.1847C30.5137 29.4491 28.5057 30.6882 25.8568 30.6882C24.1478 30.6882 22.5244 30.1754 21.6698 29.7909C21.1999 30.2182 20.3453 30.9017 19.7472 31.3291C21.5844 32.1836 23.4643 32.6536 25.2587 32.6536C29.3602 32.6536 32.3936 30.3891 33.5472 28.1247C34.7861 25.6465 34.7006 21.374 31.4964 17.7424V17.7424ZM9.79255 23.7665C9.83531 25.0483 10.9034 26.0736 12.1851 26.0736H12.2706C13.595 26.031 14.6204 24.9201 14.5776 23.5956C14.535 22.3138 13.4668 21.2885 12.1851 21.2885H12.0997C12.0142 21.2885 11.8859 21.2885 11.8007 21.3311C10.0489 18.4258 9.32265 15.2642 9.57905 11.8461C9.7498 9.28257 10.6044 7.0608 12.0997 5.22355C13.3387 3.6427 15.7312 2.87365 17.3548 2.83103C21.8834 2.74552 23.8059 8.38526 23.9342 10.6498C24.4896 10.7779 25.4295 11.0771 26.0705 11.2907C25.5577 4.36926 21.2853 0.780273 17.1839 0.780273C13.3387 0.780273 9.79255 3.55745 8.38259 7.65909C6.41734 13.1279 7.69904 18.3832 10.0916 22.5276C9.87806 22.8266 9.7498 23.2966 9.79255 23.7666V23.7665Z" fill="#764ABC"/>
</g>
<defs>
<clipPath id="clip0_270_46">
<rect width="33.58" height="32" fill="white" transform="translate(0.710693 0.780273)"/>
</clipPath>
</defs>
</svg>
