<svg width="37" height="23" viewBox="0 0 37 23" fill="none" xmlns="http://www.w3.org/2000/svg">
<g clip-path="url(#clip0_265_7)">
<path d="M18.3754 0.780273C13.576 0.780273 10.5762 3.21842 9.37632 8.09456C11.1761 5.65642 13.2759 4.74213 15.6757 5.3517C17.0448 5.69942 18.0235 6.7087 19.1068 7.8257C20.8714 9.64556 22.9137 11.7517 27.3746 11.7517C32.174 11.7517 35.1738 9.31356 36.3737 4.43742C34.5739 6.87556 32.4741 7.78984 30.0743 7.18027C28.7052 6.83256 27.7265 5.82327 26.6432 4.70627C24.8786 2.88642 22.8363 0.780273 18.3754 0.780273ZM9.37632 11.7517C4.57683 11.7517 1.57703 14.1898 0.377197 19.066C2.17702 16.6278 4.27677 15.7136 6.67658 16.3231C8.04571 16.6708 9.02437 17.6801 10.1076 18.7971C11.8723 20.617 13.9145 22.7231 18.3754 22.7231C23.1749 22.7231 26.1747 20.285 27.3746 15.4088C25.5747 17.847 23.475 18.7613 21.0752 18.1517C19.706 17.804 18.7274 16.7947 17.6441 15.6777C15.8794 13.8578 13.8372 11.7517 9.37632 11.7517Z" fill="url(#paint0_linear_265_7)"/>
</g>
<defs>
<linearGradient id="paint0_linear_265_7" x1="-0.622785" y1="7.80199" x2="30.7099" y2="25.5839" gradientUnits="userSpaceOnUse">
<stop stop-color="#2298BD"/>
<stop offset="1" stop-color="#0ED7B5"/>
</linearGradient>
<clipPath id="clip0_265_7">
<rect width="36" height="22" fill="white" transform="translate(0.375488 0.780273)"/>
</clipPath>
</defs>
</svg>
