<svg width="33" height="33" viewBox="0 0 33 33" fill="none" xmlns="http://www.w3.org/2000/svg">
<g clip-path="url(#clip0_265_2)">
<path d="M3.30176 0.780273H30.3018C31.6825 0.780273 32.8018 1.89952 32.8018 3.28027V30.2803C32.8018 31.661 31.6825 32.7803 30.3018 32.7803H3.30176C1.92101 32.7803 0.801758 31.661 0.801758 30.2803V3.28027C0.801758 1.89952 1.92101 0.780273 3.30176 0.780273Z" fill="#3178C6"/>
<path d="M19.6165 25.8396V29.2921C20.178 29.5799 20.8421 29.7956 21.6088 29.9395C22.3754 30.0834 23.1834 30.1553 24.0329 30.1553C24.8606 30.1553 25.6471 30.0761 26.3921 29.9179C27.1371 29.7596 27.7905 29.4989 28.3519 29.1358C28.9134 28.7725 29.3579 28.2978 29.6855 27.7115C30.013 27.1254 30.1768 26.4008 30.1768 25.5376C30.1768 24.9119 30.0831 24.3634 29.896 23.8923C29.7109 23.4243 29.4358 22.9973 29.0861 22.6354C28.7335 22.2685 28.3105 21.9395 27.8175 21.6481C27.3244 21.3569 26.7683 21.0818 26.1491 20.8229C25.6956 20.6358 25.289 20.4543 24.929 20.278C24.5691 20.1018 24.2631 19.922 24.0113 19.7385C23.7593 19.5551 23.5649 19.3609 23.4281 19.1559C23.2914 18.9509 23.223 18.719 23.223 18.46C23.223 18.2226 23.2841 18.0088 23.4065 17.8181C23.5289 17.6275 23.7018 17.4639 23.9249 17.3273C24.148 17.1905 24.4215 17.0845 24.7455 17.0089C25.0694 16.9334 25.4294 16.8956 25.8253 16.8956C26.1133 16.8956 26.4174 16.9173 26.7376 16.9604C27.058 17.0035 27.3801 17.07 27.7041 17.16C28.0271 17.2496 28.3429 17.3632 28.6489 17.4999C28.9456 17.6314 29.2294 17.7903 29.4965 17.9745V14.7486C28.971 14.5473 28.3969 14.398 27.7743 14.3009C27.1516 14.2038 26.4371 14.1553 25.6309 14.1553C24.8103 14.1553 24.0329 14.2434 23.2986 14.4196C22.5644 14.5958 21.9183 14.8709 21.3604 15.2449C20.8025 15.619 20.3616 16.0955 20.0376 16.6745C19.7138 17.2535 19.5518 17.9458 19.5518 18.7514C19.5518 19.7799 19.8486 20.6574 20.4426 21.3839C21.0365 22.1103 21.938 22.7253 23.1474 23.2288C23.5938 23.4106 24.0366 23.6013 24.4755 23.8006C24.8859 23.9876 25.2404 24.1818 25.5391 24.3831C25.8379 24.5845 26.0736 24.8039 26.2464 25.0413C26.4191 25.2786 26.5055 25.5484 26.5055 25.8505C26.5069 26.068 26.4511 26.2819 26.3435 26.4709C26.2356 26.6614 26.0718 26.8269 25.8523 26.9671C25.6328 27.1074 25.3591 27.217 25.0316 27.2961C24.7041 27.3753 24.3208 27.4149 23.8816 27.4149C23.133 27.4149 22.3916 27.2836 21.6574 27.021C20.923 26.7585 20.2428 26.3648 19.6165 25.8396V25.8396ZM13.862 17.248H18.3018V14.4053H5.92676V17.248H10.3449V29.9053H13.862V17.248Z" fill="white"/>
</g>
<defs>
<clipPath id="clip0_265_2">
<rect width="32" height="32" fill="white" transform="translate(0.801758 0.780273)"/>
</clipPath>
</defs>
</svg>
